<?xml version="1.0" encoding="UTF-8"?>
<svg xmlns="http://www.w3.org/2000/svg" xmlns:xlink="http://www.w3.org/1999/xlink" version="1.1" viewBox="0 0 1600 1251">
  <!-- Generator: Adobe Illustrator 30.0.0, SVG Export Plug-In . SVG Version: 2.1.1 Build 123)  -->
  <defs>
    <clipPath id="clippath">
      <rect x="742.9" y="743.8" width="115.9" height="27.4" fill="none"/>
    </clipPath>
  </defs>
  <g id="bg">
    <g id="bg1" data-name="bg">
      <path d="M0,0h1600v1250H0V0Z" fill="#111"/>
      <path d="M1600,1250v-.2H0v.5h1600v-.3Z" fill="#fff"/>
    </g>
  </g>
  <g id="center">
    <g id="center1" data-name="center">
      <path d="M800.9,849.2c50.4,0,91.2-40.9,91.2-91.2s-40.9-91.2-91.2-91.2-91.2,40.9-91.2,91.2,40.9,91.2,91.2,91.2Z" fill="#fff"/>
      <g clip-path="url(#clippath)">
        <g>
          <rect x="742.9" y="743.8" width="115.9" height="27.4" fill="#fff"/>
          <path d="M757.5,754v-2.4c0-.3-.3-.5-.6-.5l-5.7.2c-.3,0-.5.2-.5.5v2.5c0,.3-.2.5-.5.5l-6.9.3c-.3,0-.5.2-.5.5v3.6c0,.3.3.5.5.5l25.1-1.1c.3,0,.5-.2.5-.5v-3.6c0-.3-.3-.5-.6-.5l-10.4.4c-.3,0-.5-.2-.5-.5h0l.1.1Z"/>
          <path d="M828.7,754.2h.9c.4,0,.7.3.7.8v3.8c0,.4-.3.8-.7.8h-.9c-.4,0-.7.3-.7.8v10.2c0,.4-.3.8-.7.8h-5.1c-.4,0-.7-.3-.7-.8v-25.8c0-.4.3-.8.7-.8h5.1c.4,0,.7.3.7.8v8.8c0,.4.3.8.7.8h0v-.2Z"/>
          <path d="M816.1,763.4h-.5c-1.9,0-3.4,1.5-3.4,3.5s1.5,3.5,3.4,3.5h.5c1.9,0,3.4-1.5,3.4-3.5s-1.5-3.5-3.4-3.5Z"/>
          <path d="M807.4,743.8c-.4,0-.8.4-.8.8v12.7c0,2.7-1.7,5-4.1,5.9-.3.1-.5.4-.5.8v5.4c0,.5.4.9.9.8,5.9-1.1,10.4-6.4,10.4-12.8v-12.7c0-.4-.4-.8-.8-.8h-5.1v-.1Z"/>
          <path d="M786.5,745.4c-1-1.1-2.3-1.6-3.7-1.6h-5.2c-1.5,0-2.8.5-3.8,1.6s-1.5,2.3-1.5,3.9v16.4c0,1.5.5,2.8,1.5,3.9,1,1.1,2.3,1.6,3.8,1.6h5.2c1.5,0,2.7-.5,3.7-1.6s1.5-2.4,1.6-3.8v-16.4c0-1.5-.5-2.8-1.6-3.8v-.2ZM782.3,764.9c0,.4-.1.8-.4,1-.2.3-.6.4-1,.4h-1.5c-.4,0-.8-.1-1-.4-.2-.3-.4-.6-.4-1v-14.7c0-.4.1-.8.4-1,.2-.3.6-.4,1-.4h1.5c.4,0,.8.1,1,.4.2.3.4.6.4,1v14.7Z"/>
          <path d="M791.8,744.4v4.2c0,.3-.2.5-.5.6l-1.7.2c-.3,0-.5.3-.5.6v4.1c0,.3.3.6.6.6h1.5c.3-.2.6,0,.6.4v4.1c0,.3-.2.5-.5.6l-1.7.2c-.3,0-.5.3-.5.6v4.1c0,.3.3.6.6.6h1.5c.3-.2.6,0,.6.4v2.7c0,1.5,1.2,2.8,2.7,2.8h3.3c.3,0,.6-.3.6-.6v-26.2c0-.3-.3-.6-.6-.6h-5.5c-.3,0-.6.3-.6.6h.1Z"/>
          <path d="M858.8,753.8v2.9c0,.3-.3.6-.6.6l-24.6,1c-.3,0-.6-.3-.6-.6v-2.9c0-.3.3-.6.6-.6l24.6-1c.3,0,.6.3.6.6ZM858.1,746.9v-2.5c0-.4-.4-.6-.7-.6h-23.1c-.3,0-.6.3-.6.6v6.9c0,1,.8,1.7,1.7,1.7l22.1-1c.3,0,.6-.3.6-.6v-2.2c0-.4-.3-.7-.7-.6l-16.5.9c-.4,0-.7-.3-.7-.6v-.6c0-.3.3-.4.6-.4l16.5-.3c.3,0,.6-.3.6-.6h0l.2-.1ZM840.6,766.6l15.2-.9h.4l1.3-.1c.4,0,.7-.3.7-.7v-5.9c0-.4-.3-.7-.7-.7h-1.2.9-1.3l-3.5.2-15.9.7h-2.2c-.3.1-.5.4-.5.7v2.2c0,.3.3.6.6.6h2.1c0-.1.2-.1.2-.1l14.5-.9c.2,0,.3.1.3.3v.5c0,.2-.1.3-.3.3l-12.9.8h-1.5l-2.5.2c-.4,0-.6.3-.6.7v3.9c0,1.5,1.2,2.7,2.6,2.7h21.2c.3,0,.6-.3.6-.6v-2.3c0-.3-.3-.6-.6-.6h-16.9c-.2,0-.3-.1-.3-.3v-.4c0-.2.1-.3.3-.3h0Z"/>
          <path d="M761.9,750.6l-.2,1.8c0,.5.3.9.8.9l5.2-.4c.4,0,.7-.3.7-.7l.2-2.1v-5.5c0-.4-.4-.8-.8-.8h-23.9c-.4,0-.8.4-.8.8v3c0,.4.4.8.8.8h17.2c.4,0,.8.4.8.8v1.4h0Z"/>
          <path d="M764.7,760.2l-17.4.8c-1.2,0-2.2.4-2.9,1.1-.8.8-1.1,1.7-1.1,2.9v1.9c0,1.2.4,2.2,1.1,2.9.8.8,1.7,1.1,2.9,1.1h17.4c1.2,0,2.2-.4,2.9-1.1.8-.8,1.1-1.7,1.1-2.9v-2.7c0-1.2-.4-2.2-1.1-2.9-.8-.8-1.7-1.1-2.9-1.1ZM762.5,766.1c0,.3,0,.5-.2.6-.2.2-.4.2-.7.2h-11.3c-.3,0-.5,0-.6-.2-.2-.2-.2-.4-.2-.6h0c0-.3,0-.8.2-.9s.4-.2.6-.2l11.3-.8c.3,0,.5,0,.6.2.2.2.2.4.2.6v1.1h.1Z"/>
        </g>
      </g>
    </g>
  </g>
  <g id="opro">
    <g id="opro1" data-name="opro">
      <path d="M801,954.4c108.4,0,196.3-87.9,196.3-196.3s-87.9-196.3-196.3-196.3-196.3,87.9-196.3,196.3,87.9,196.3,196.3,196.3Z" fill="none" stroke="#ffec8c" stroke-miterlimit="10" stroke-width="3"/>
      <path d="M915.3,628c-1.1,0-2.2,0-3.3-.2-5.1-.6-9-2.2-11.6-4.7-1.7-1.6-2.7-3.3-3.3-5.1l-.4-2v-1.4c0-1.2.4-2.6.7-3.9.6-2.5,1.2-5.1,0-7.4-.9-1.9-.9-4.3-.8-6,0-.8.1-1.6.3-2.5v-.8c.1,0-.6-.4-.6-.4-1.8-1.7-2.3-4.8-1.4-7.9,2.7-8.3,10.1-11.3,16.2-12.9,2.5-.7,5.1-1,7.6-1,4.2,0,8.3,1,11.8,2.9l.2.1,1.3.9.5-1.5c.1-.3.3-.6.4-.8,1.7-2.6,4-3.9,6.7-3.9s7.7,2.2,10.5,5.7h0c0,.1.2.3.4.5,3.1,3.8,6.1,7.4,11.1,7.4s1.3,0,1.9-.2c-3.4,3.9-7.5,6-11.7,6s-4.2-.5-6.2-1.6l-2.5-1.3.7,2.7c1.6,5.9-.2,10.8-1.4,13.2l-.4.6.4.7s.1.2.1.3c.8,1.5.6,3.4-.5,5-.8,1.1-1.8,1.9-3,2.2l-.7.2-.2.6c-2.5,7.5-6.5,10.8-6.9,11.1h-.2l-.2.2c-1.5,1.2-3.4,2.3-5.3,3.2-3.2,1.4-6.7,2.1-10.3,2.1h0l.1-.1Z" fill="#f7dcb8"/>
      <path d="M895.8,593c2.4-.4,4.7-.8,6.9-1.7,2.1-.9,4.2-2.1,6.6-2.2,1.4,0,2.9.3,4.3.4,2.3.1,4.5-.5,6.7-1.1,1.8-.5,3.6-1,5.2-1.9,1-.6,2.5-2.5,3.7-1,1.3,1.6,1.1,4.2,1.8,6.1,1.3,3.6,3.4,6.9,6.1,9.7l5.3.5,1.4-2.9,1.4-8.5-1.5-5.3,4.8,3.6s10.9,0,13.5-4.8c0,0-4.3.5-10.4-8.9,0,0-10.6-9.7-16.2-3.4l-3.8,3.8s-14.5-10.1-32.1,2.7c-4.3,3.6-6.5,9.9-3.6,15h0l-.1-.1Z" fill="#efce4f"/>
      <path d="M899.6,596.9c.5,0,1.4-.6,1.9-.6,1.2-.1,2.2.4,3.4.7,1.6.5.8-1.3.2-1.8-1.3-1-4-.7-5.3.2-.6.4-1.2,1.2-.2,1.5h0ZM900.5,601.9c.3-.4.8-.8,1.2-.8h.2s-.2.3-.2.4c0,0-.1.2-.2.3-.3.6-.5,1.3-.5,2,0,1.1.3,3.1,1.8,3.6h.7c.6,0,1.3-.2,1.7-.5,1-.7,1.2-2.1,1.2-2.9,0-.9-.1-1.9-.5-2.6,0,0-.1-.2-.2-.3v-.1c-1-1.4-2.6-2-4.1-1.7-1.1.2-2.3,1.1-2.4,2.4,0,.3.1.7.5.7.2,0,.4-.1.4-.2h0l.4-.4v.1ZM926.6,612.6c-.3,0-.6.3-.6.6s.3.6.6.6.6-.3.6-.6-.3-.6-.6-.6ZM902.8,610.5c0,.3.3.6.6.6s.6-.3.6-.6-.3-.6-.6-.6-.6.3-.6.6ZM926.6,594.6c-2-1.1-6.2-.9-6.4.9,0,.4.2.9.6.8.7-.1,1.3-.5,2-.6,1.5-.2,3.3,1,4.7.5,0,0,.2-.1.2-.2,0-.6-.4-1-1-1.3l-.1-.1ZM901.4,612.8c0-.3-.3-.6-.6-.6s-.6.3-.6.6.3.6.6.6.6-.3.6-.6ZM926.5,601.8v-.1c-1-1.5-2.8-2.2-4.4-1.8-1.2.3-2.5,1.2-2.5,2.6,0,.4.2.8.5.8.2,0,.4-.1.5-.2l.5-.5c.4-.4.9-.9,1.3-.9h.2s-.2.4-.3.5c0,.1-.1.2-.2.3-.3.6-.5,1.4-.6,2.2,0,1.2.3,3.4,2,3.9h.7c.7,0,1.4-.2,1.8-.6,1-.8,1.3-2.3,1.3-3.1,0-1-.2-2-.6-2.8,0-.1-.1-.2-.2-.3h0ZM925,611.6c0-.3-.3-.6-.6-.6s-.6.3-.6.6.3.6.6.6.6-.3.6-.6ZM936.7,607.8c0,.1,0,.2.1.3,0,.1.2.3.3.3.3.1.6,0,.8,0,.1,0,.2-.1.3-.2v-.4c0-.7-.5-1.4-.3-2.1,0-.4.3-.7.4-1,0-.2.1-.5,0-.6h-.3c-1.5,0-1.7,2.8-1.4,3.9l.1-.2ZM909.8,591.1h.4c2-.7,4-1.7,5.8-2.9,3.1-2.1,5.7-4.9,7.7-8.1.3-.5.1-1.2-.4-1.5s-1.2-.1-1.5.4c-1.8,2.9-4.2,5.5-7.1,7.4-1.7,1.1-3.5,2-5.3,2.7-.6.2-.8.8-.6,1.4.2.4.6.7,1,.7v-.1ZM928.6,581.6c-.6-.2-1.2,0-1.3.7-1,2.9-3.7,5.2-6.8,5.6-.6,0-1,.6-.9,1.2,0,.5.5.9,1,.9s.1,0,.2,0c3.8-.6,7.2-3.4,8.5-7,.2-.6,0-1.2-.7-1.3h0v-.1ZM964.5,583.7c-3.7,4.2-8.1,6.4-12.6,6.4-2.3,0-4.5-.6-6.7-1.7,1.7,6.3-.2,11.4-1.5,14.1v.1c0,.1.1.2.2.3,1,1.9.7,4.3-.6,6.2-.9,1.4-2.3,2.3-3.7,2.7-2.7,8.1-7.2,11.6-7.4,11.7-.1,0-.2.1-.4.2-1.6,1.3-3.5,2.5-5.6,3.3-3.4,1.5-7,2.2-10.8,2.2s-2.3,0-3.4-.2c-5.4-.6-9.5-2.3-12.3-5-1.8-1.7-3-3.6-3.6-5.8l-.4-2.2v-1.6c0-1.4.4-2.7.7-4.1.6-2.4,1.1-4.6.2-6.6-1.1-2.2-1-4.8-.9-6.6,0-.8.1-1.7.3-2.6,0,0-.1,0-.2-.2-2.1-2.1-2.8-5.6-1.7-9.1,2.9-8.9,10.6-12,17-13.7,7.2-1.9,14.4-1.2,20.2,2h0s.1,0,.2.2c.1-.4.3-.7.6-1.1,5.1-7.7,14.4-4.1,19.2,1.7l.4.5c3.4,4.1,6.4,7.7,11.9,6.8.5,0,1,.2,1.3.6.2.4.2,1-.1,1.4h0l-.3.1ZM942.8,587.9c-1.2-3.5-3.2-6.2-6-8-2.1-1.4-3.9-1.7-3.9-1.7h0c-.2,0-.4-.3-.5-.5-.4-.9-1.7-1.8-2.2-2.1-5.4-3-12-3.6-18.6-1.8-4.1,1.1-7.2,2.4-9.6,4.2-2.9,2.1-4.8,4.7-5.9,8.2-.6,1.8-.7,4.3.5,6.1,2.8-.7,5.5-1.8,8-3.4,2.1-1.4,4-3,5.9-4.7l4.3-3.8c.4-.4,1.1-.3,1.5.1.4.4.3,1.1,0,1.5l-4.3,3.8c-1.9,1.7-3.9,3.4-6.1,4.9-2.3,1.5-4.8,2.6-7.5,3.4-.4,2.3-1,6.4.3,9s.6,5.4,0,8c-.3,1.3-.6,2.5-.6,3.7-.1,3.1,1,5.6,3.4,8,2.5,2.3,6.2,3.8,11.1,4.4,4.6.5,9.1,0,13.2-1.8,2.3-1,4.5-2.4,6.1-4h0c1.3-1.2,3.9-4.2,5.7-9.3-.4-.2-.6-.6-.6-1,0-.6.6-1,1.2-1,1.4.1,2.8-.6,3.6-1.9.9-1.3,1.1-2.8.4-4.1-.4-.7-.8-1.1-1.4-1.3-1.1-.3-2.3.4-2.3.4-.5.3-1.2.1-1.5-.4s-.1-1.1.4-1.4c.2-.1,2-1.2,3.9-.6.3,0,.7.2,1,.4,1.2-2.6,2.7-7.4.8-13.1h0l-.3-.2ZM960.6,584.3c-4.9-.5-8-4.2-10.9-7.8l-.4-.5c-3.7-4.4-11.1-8.2-15.3-1.9-.4.6-.5,1.2-.4,1.8,0,.1.2.2.2.3,1.7.4,7,2.3,10.1,8.7,0,0,.2,0,.3.2.3.1.6.3,1,.6,3,1.9,6.1,2.5,9.3,1.8,2.1-.5,4.2-1.6,6-3.2h.1ZM940.4,589c-.4-.3-1.1-.2-1.4.2-1.2,1.5-4.5,2-5.7,2-.6,0-1,.4-1,1,0,.5.5.9,1,.9h0c.2,0,5.2-.2,7.2-2.8.3-.4.2-1-.2-1.3h.1ZM938.9,594.6c-1,.7-2.4,1-3.5,1.5-.2,0-.4.2-.6.4-.1.2-.2.4,0,.6.1.1.3.1.5.2,1.9,0,3.2,0,4.8-1.1.5-.3.6-.9.2-1.4-.4-.4-1-.5-1.5-.2h.1Z"/>
      <path d="M923.6,618.3c-.2-.3-.6-.6-.9-.7-1-.5-1.8-1-2.2-2-.3-.6-.5-1.6-1.4-1.4-1.2.3-.4,1.5-.5,2.3-.2.9-1,1.4-1.8,1.7-1.8.7-4,.6-5.9.3-1.3-.2-2.7-.5-3.9-1.1-.8-.5-1.2-1.9-2.5-1.1-2,1.3,1.5,2.8,2.2,3.1,1.9.8,4,1.2,6.1,1.2s2.6-.2,3.9-.5c1.2-.3,2.3-1.1,3.6-1.1.8,0,2.3.9,3,.3.4-.3.4-.6.3-.9h0v-.1Z"/>
      <path d="M914.4,613h-.2c-.5,0-.9-.6-.8-1.1.1-.8-.2-1.3-.9-1.7-1.2-.7-3-.5-3.6,0-.2.2-.3.4-.1.9s0,1-.5,1.2-1,0-1.2-.5c-.5-1.2-.2-2.3.6-3,1.3-1.2,4-1.3,5.8-.3,1.4.8,2.1,2.1,1.8,3.7,0,.5-.5.8-.9.8h0Z"/>
      <path d="M965.2,611.4h-2.5v-4.1h2.5v4.1ZM964,598.3c1.3,0,2.4.2,3.4.6,1,.4,1.8,1,2.4,1.7.6.7.9,1.6.9,2.5s-.3,1.8-.9,2.6c-.6.7-1.4,1.3-2.4,1.7s-2.2.6-3.4.6-2.4-.2-3.4-.6c-1-.4-1.8-1-2.4-1.7-.6-.7-.9-1.6-.9-2.6s.3-1.8.9-2.5c.6-.7,1.4-1.3,2.4-1.7s2.2-.6,3.4-.6ZM964,600.3c-.8,0-1.6.1-2.2.4-.6.2-1.1.6-1.5,1s-.5.9-.5,1.5.2,1.1.5,1.6c.4.4.9.8,1.5,1s1.4.3,2.2.4c.8,0,1.6-.1,2.2-.4.6-.2,1.1-.6,1.5-1s.5-1,.5-1.6-.2-1.1-.5-1.5c-.4-.4-.8-.8-1.5-1-.6-.2-1.4-.4-2.2-.4ZM972.1,613.1h-16.2v-2h16.2v2ZM989.4,613.1h-16.2v-2h16.2v2ZM988.1,600.9h-13.6v-2h13.6v2ZM988,608.3h-13.5v-2h13.5v2ZM979.4,606.5h-2.5v-5.8h2.5v5.8ZM985.6,606.5h-2.5v-5.8h2.5v5.8ZM1006.7,613.2h-16.2v-2h16.2v2ZM999.8,612h-2.5v-4.2h2.5v4.2ZM1004.8,604.4h-10v3h-2.5v-5h10v-1.9h-10.1v-2h12.5v5.9h.1ZM1005.2,608.4h-12.9v-2h12.9v2Z" fill="#efce4f"/>
    </g>
  </g>
  <g id="lee">
    <g id="lee1" data-name="lee">
      <path d="M814,809.6c219-55.9,390.6-124.5,383.3-153.1-7.3-28.7-190.8-6.6-409.8,49.3-219,55.9-390.6,124.5-383.3,153.1,7.3,28.7,190.8,6.6,409.8-49.3h0Z" fill="none" stroke="#dec4ff" stroke-miterlimit="10" stroke-width="3"/>
      <path d="M559,867.8s-4.9-6.4-.7-8.9l2.2,1.6s.5,5.6-1.5,7.2v.1Z" fill="#f7dcb8"/>
      <path d="M591.3,880.8c1.8-1.2,3.3-2.6,4.6-4.4.7-.9,1.3-1.9,1.8-2.9.2-.3,1.9-3.8,1.7-3.9-.4-.2-.6-.6-.6-1,0-.6.6-1,1.2-1,1.4.1,2.8-.6,3.6-1.9.9-1.3,1.1-2.8.4-4.1-.4-.7-.8-1.1-1.4-1.3-1.1-.3-2.3.4-2.3.4-.5.3-1.2.1-1.4-.4-.3-.6-.2-1.1-.9-1.6-.5-.4-.9-.4-1.5-.4-1.4,0-2.9-.2-4.3-.5-3-.6-6-1.7-8.6-3.3,0,0-.1,0-.2.1-1.4.4-2.7.6-4.1.6s-2.8-.2-4.2-.4c-2.2-.3-4.5-.8-6.5-2-3.4-2.1-5.6-6.4-5.9-11.7,0-.6.4-1.1,1-1.1s1.1.4,1.1,1c.4,6.6,3.6,9.2,4.9,10,1.6,1,3.7,1.4,5.6,1.7,2,.3,4.1.5,6,.2-.5-.4-.9-.8-1.3-1.2-4.7-4.6-6.2-11-7.4-17.1-.1-.6.3-1.1.8-1.2.6-.1,1.1.3,1.2.8,1.1,5.8,2.5,11.8,6.8,16,2.7,2.6,6.1,4.4,9.7,5.3,3.7.9,7.5.9,11.3.9h0s.1.2,0,.2c0,0-.1.2-.2.2-.4.4-.8.7-1.2,1.1,0,0-.2.2,0,.3h.1c.6,0,1-.1,1.6,0,.9.2,1.6.8,2.1,1.5,0-1-.2-1.9-.2-2.9-.2-2.4-.3-5-.9-7.3-1.5-5.9-4.5-10.9-8.9-14.4-4.5-3.6-10-5.5-16.1-5.3-6.7.2-13,3.3-16.9,8.4-2.5,3.2-3.9,7.2-4,11.3,0,2,.4,3.8.8,5.7.4,1.9.4,3.8,1.3,5.5,1.3,2.6.6,5.4,0,8-.3,1.3-.6,2.5-.6,3.7-.1,3.1,1,5.6,3.4,8,2.5,2.3,6.2,3.8,11.1,4.4,4.6.5,9.1,0,13.2-1.8,1.3-.6,2.6-1.3,3.8-2.1h0l.5-.1Z" fill="#f7dcb8"/>
      <path d="M557.9,843.9s.2,6,8.2,6.3l3.9,2.4s10.2,2.4,13,.7l9.4,3.4,7.3,1.4,3.8,1.6s4.7,4.2-2.6,9l-2.4,5.8-3.1,5.5,10-3.2s5.2-1.5,3.5-8.2l-2.2-5.6-1.3-12.8s-3.6-16.5-17.1-20.1c0,0-21.9-6.9-30.4,13.9h0v-.1Z" fill="#cb9bf9"/>
      <path d="M561.9,854.2c.6.2,1.3,0,1.9,0,.9,0,1.7.2,2.6.4,2.5.7.5-1.4-.9-1.8-1.1-.3-3.7-.5-3.8,1.2,0,0,0,.2.1.2h.1ZM562.7,859.6c.3-.4.8-.8,1.2-.8h.2s-.2.3-.2.4c0,0-.1.2-.2.3-.3.6-.5,1.3-.5,2,0,1.1.3,3.1,1.8,3.6h.7c.6,0,1.3-.2,1.7-.5,1-.7,1.2-2.1,1.2-2.9,0-.9-.1-1.9-.5-2.6,0,0-.1-.2-.2-.3v-.1c-1-1.4-2.6-2-4.1-1.7-1.1.2-2.3,1.1-2.4,2.4,0,.3.1.7.5.7.2,0,.4-.1.4-.2h0l.4-.4v.1ZM588.8,859.5v-.1c-1-1.5-2.8-2.2-4.4-1.8-1.2.3-2.5,1.2-2.5,2.6,0,.4.2.8.5.8.2,0,.4-.1.5-.2l.5-.5c.4-.4.9-.9,1.3-.9h.2s-.2.4-.3.5c0,.1-.1.2-.2.3-.3.6-.5,1.4-.6,2.2,0,1.2.3,3.4,2,3.9h.7c.7,0,1.4-.2,1.8-.6,1-.8,1.3-2.3,1.3-3.1,0-1-.2-2-.6-2.8,0-.1-.1-.2-.2-.3h0ZM599.9,866.9c1.2,0,.4-2.7.7-3.2.1-.2.3-.4.4-.6.1-.2.1-.4,0-.6-.1-.2-.3-.2-.6-.2-.2,0-.4.2-.6.3-.7.5-1.1,1.1-1.2,2,0,.7,0,2,.8,2.3h.5ZM607.9,875.9c-2.7,2.5-6.2,3.7-9.7,4.6-.8.2-1.6.3-2.4.4-.9,0-1.7.7-2.4,1.1-1.6,1-3.2,2.1-5,2.9-3.4,1.5-7,2.2-10.8,2.2s-2.3,0-3.4-.2c-5.4-.6-9.5-2.3-12.3-5-1.8-1.7-3-3.6-3.6-5.8l-.4-2.2v-1.6c0-1.3.8-2.8.4-4-.3-.9-1.4-1.5-1.8-2.3-.6-1.2-1-2.4-1-3.7s.4-2.7,1.2-3.5c.3-.3.7-.6,1.2-.7,0-1.6-.5-2.8-1-4.3-.6-1.9-.5-4.1-.3-6,.4-3.9,1.9-7.6,4.3-10.7,4.3-5.6,11.2-9,18.5-9.2,13.2-.3,23.8,8.1,27.1,21.4.6,2.5.8,5.1,1,7.7.2,2.8.4,5.4,1.1,7.8.2.8.5,1.6.8,2.3,1.1,2.8,2.2,5.7-1.3,9h0l-.2-.2ZM558.9,866c.3-1.6.3-3.1-.3-4.5-.2-.5-.4-.9-.5-1.4h0c-.4.4-.6,1.2-.6,1.9,0,1.4.6,2.8,1.5,3.9h0l-.1.1ZM591.3,880.8c1.8-1.2,3.3-2.6,4.6-4.4.7-.9,1.3-1.9,1.8-2.9.2-.3,1.9-3.8,1.7-3.9-.4-.2-.6-.6-.6-1,0-.6.6-1,1.2-1,1.4.1,2.8-.6,3.6-1.9.9-1.3,1.1-2.8.4-4.1-.4-.7-.8-1.1-1.4-1.3-1.1-.3-2.3.4-2.3.4-.5.3-1.2.1-1.4-.4-.3-.6-.2-1.1-.9-1.6-.5-.4-.9-.4-1.5-.4-1.4,0-2.9-.2-4.3-.5-3-.6-6-1.7-8.6-3.3,0,0-.1,0-.2.1-1.4.4-2.7.6-4.1.6s-2.8-.2-4.2-.4c-2.2-.3-4.5-.8-6.5-2-3.4-2.1-5.6-6.4-5.9-11.7,0-.6.4-1.1,1-1.1s1.1.4,1.1,1c.4,6.6,3.6,9.2,4.9,10,1.6,1,3.7,1.4,5.6,1.7,2,.3,4.1.5,6,.2-.5-.4-.9-.8-1.3-1.2-4.7-4.6-6.2-11-7.4-17.1-.1-.6.3-1.1.8-1.2.6-.1,1.1.3,1.2.8,1.1,5.8,2.5,11.8,6.8,16,2.7,2.6,6.1,4.4,9.7,5.3,3.7.9,7.5.9,11.3.9h0s.1.2,0,.2c0,0-.1.2-.2.2-.4.4-.8.7-1.2,1.1,0,0-.2.2,0,.3h.1c.6,0,1-.1,1.6,0,.9.2,1.6.8,2.1,1.5,0-1-.2-1.9-.2-2.9-.2-2.4-.3-5-.9-7.3-1.5-5.9-4.5-10.9-8.9-14.4-4.5-3.6-10-5.5-16.1-5.3-6.7.2-13,3.3-16.9,8.4-2.5,3.2-3.9,7.2-4,11.3,0,2,.4,3.8.8,5.7.4,1.9.4,3.8,1.3,5.5,1.3,2.6.6,5.4,0,8-.3,1.3-.6,2.5-.6,3.7-.1,3.1,1,5.6,3.4,8,2.5,2.3,6.2,3.8,11.1,4.4,4.6.5,9.1,0,13.2-1.8,1.3-.6,2.6-1.3,3.8-2.1h0l.5-.1ZM607.2,867.6c-.3-.8-.6-1.6-.9-2.5v-.2c-.2.7-.5,1.3-.9,1.9-.9,1.4-2.3,2.3-3.7,2.7-1.4,4.2-3.2,7.1-4.7,9,3.7-.8,7-1.9,9.5-4.2s1.9-4,.8-6.7h-.1Z"/>
      <path d="M573.8,878.8c-1.2,0-2.4-.1-3.5-.3-2.1-.5-3.5-1.3-4.3-2.6-.3-.6-.1-1.3.4-1.7.6-.3,1.3-.1,1.7.4.4.6,1.3,1.2,2.7,1.5,3.4.7,8.3,0,9.9-1.2.6-.4,1.3-.3,1.7.3s.3,1.3-.3,1.7c-1.7,1.2-5.1,1.9-8.3,1.9h0Z"/>
      <path d="M571.9,871.9c-.2,0-.4,0-.6-.2-.3-.2-.5-.5-.8-.7-1.1-1.1-1.5-2.5-1.2-3.7.2-.8.8-1.6,1.7-1.9.7-.3,1.5-.3,2.1,0,.5.3.6.8.4,1.3-.2.5-.8.6-1.3.4h-.5c-.3.1-.5.4-.6.6-.2.7.3,1.5.7,2,.2.2.4.4.7.6.4.3.4.9,0,1.3-.2.2-.5.3-.7.3h.1Z"/>
      <path d="M572.7,914.2h-2.5v-17.8h2.5v17.8ZM563.1,897.6c.9,0,1.7.3,2.4.8s1.3,1.3,1.7,2.2c.4,1,.6,2.1.6,3.3s-.2,2.4-.6,3.3c-.4,1-1,1.7-1.7,2.2s-1.5.8-2.4.8-1.7-.3-2.4-.8-1.3-1.3-1.7-2.2c-.4-1-.6-2.1-.6-3.3s.2-2.4.6-3.3c.4-1,1-1.7,1.7-2.2s1.5-.8,2.4-.8ZM563.1,899.9c-.5,0-.9.2-1.2.5s-.6.8-.8,1.4c-.2.6-.3,1.4-.3,2.2s0,1.6.3,2.2c.2.6.5,1.1.8,1.4.4.3.8.5,1.2.5s.8-.2,1.2-.5c.3-.3.6-.8.8-1.4.2-.6.3-1.4.3-2.2s0-1.6-.3-2.2c-.2-.6-.5-1.1-.8-1.4-.3-.3-.7-.5-1.2-.5ZM590.5,914.2h-2.3v-17.8h2.3v17.8ZM588.7,905.2h-3v-2h3v2ZM586.4,913.3h-2.3v-16.6h2.3v16.6ZM576.9,908h3.3c.9,0,1.9-.2,2.9-.4l.2,2c-1,.2-2,.3-2.9.4-1,0-2.1,0-3.5.1h-1.2v-2.1h1.2ZM582.3,900.4h-4.1v8.6h-2.5v-10.6h6.6v2ZM599,910.8h-2.5v-4.8h2.5v4.8ZM604.6,910.9h-2.5v-4.8h2.5v4.8ZM608.7,912.2h-16.2v-2h16.2v2ZM607.3,899.8h-13.6v-2h13.6v2ZM607.3,906.8h-13.5v-2h13.5v2ZM598.7,905.1h-2.5v-5.7h2.5v5.7ZM604.8,905.1h-2.5v-5.7h2.5v5.7Z" fill="#cb9bf9"/>
    </g>
  </g>
  <g id="kim">
    <g id="kim1" data-name="kim">
      <path d="M681.2,479.9c-107.6,46.3-182.9,153.3-182.9,277.9s75.3,231.5,182.9,277.9" fill="none" stroke="#85e5ac" stroke-linecap="round" stroke-linejoin="round" stroke-width="3"/>
      <path d="M657,488.2c.1-1.1.7-2,1.6-2.5,1.4-.8,3.3-.5,4.5.1.4.2.5.6.3,1s-.6.5-1,.3c-.9-.5-2.3-.6-3.2-.1-.5.3-.8.7-.8,1.4-.1,1,.7,1.7,1.4,2s1.6.3,2.1-.4c.2-.3.7-.4,1-.1.3.2.4.7.1,1-.6.7-1.4,1.1-2.4,1.1s-.9,0-1.4-.3c-1.8-.7-2.5-2.3-2.3-3.5h.1Z" fill="#efce4f"/>
      <path d="M670.8,481.5c.1,0,.2,0,.3-.2.5-.4,1.2-1.4,1.9-1.4.9,0,.2.7,0,1.1-.3.6-.5,1.4-.5,2.1,0,1.3.4,3.2,1.8,3.6.7.2,1.7,0,2.3-.5,1-.7,1.2-2.1,1.2-2.9,0-1-.1-1.9-.6-2.6,0-.1-.1-.2-.2-.3v-.1c-1-1.4-2.6-2.1-4.1-1.7-1.1.2-2.3,1.1-2.3,2.4,0,.2,0,.5.3.5h-.1Z" fill="#efce4f"/>
      <path d="M652.4,480.3c-.3.6-.5,1.3-.5,1.9,0,1.2.3,2.9,1.7,3.4.7.2,1.6,0,2.2-.4.9-.7,1.1-2,1.1-2.7,0-.9-.1-1.8-.5-2.5,0-.1-.1-.2-.2-.3v-.1c-.9-1.3-2.4-1.9-3.8-1.6-1.1.2-2.1,1-2.2,2.2,0,.2,0,.5.3.5.1,0,.2,0,.3-.1.5-.4,1.1-1.3,1.7-1.3.8,0,.2.7,0,1.1l-.1-.1Z" fill="#efce4f"/>
      <path d="M674,474.5c1.2-.4,2.6-.2,3.8,0h.4c0-.5-.5-.7-1-.9-1.6-.5-3.5-1-5-.2-.5.2-1.5.9-.9,1.5.7.7,2-.1,2.8-.4h-.1Z" fill="#efce4f"/>
      <path d="M650.8,474.8h0c1-.2,2.1-.3,3.1,0,.6.2,1.7,1.1,2.3.4.5-.6-.4-1.2-.8-1.5-1.3-.8-2.9-.4-4.1.1-.4.2-.8.4-.8.9h.3v.1Z" fill="#efce4f"/>
      <path d="M676.2,494.4c0,.4-.4.7-.8.7s0,0-.1,0c-1-.1-1.7-.5-2.6.1,0,0-.2.1-.3.2v.1c-1.2,1.9-2.5,3.9-4.9,5.1-1.8.9-3.7,1.3-5.5,1.3s-1.2,0-1.8-.2c-1.6-.3-2.9-1.1-3.6-2.2-.2-.4-.7-1.9-.6-2.7-.4-.3-.8-.6-1.1-.9-.2-.3-.4-.7-.8-.9-.3-.2-.7,0-1.1,0h-.9c-.4,0-.7-.5-.6-.9,0-.4.5-.7.9-.6.7.1,1.2,0,1.6-.3.8-.6.9-1.7.9-1.8,0-.4.5-.7.9-.7s.8.5.7.9c0,.5-.2,1-.5,1.4-.2.3-.4.6-.4,1,0,.3.2.7.4.9.6.7,2,1.5,5.4,1.7,1.9.1,3.8,0,5.7-.5,1.1-.3,4.6-1.3,3.9-3,0-.2-.3-.4-.4-.6-.2-.4-.3-1,0-1.4.2-.2.5-.3.8-.2.3.1.2.3.3.5.2.4.6.8,1,1,.8.5,1.7.8,2.7.9.4,0,.7.5.7.9h0l.1.2Z" fill="#efce4f"/>
      <path d="M669.2,497.3c-.3.1-.7.3-1,.4-1.8.5-3.6.7-5.4.7s-.9,0-1.3,0c-1.5,0-2.8-.3-3.9-.7,0,.4.1.8.3,1.2.4.7,1.3,1.2,2.5,1.4,2,.4,4.3,0,6.3-1,1-.5,1.7-1.2,2.4-1.9h0l.1-.1Z" fill="#efce4f"/>
      <path d="M682.6,499.5c-2-.4-4.1-.8-4.2-3.1-.1-2.6,2-4,3.2-5.9,1.1-1.8,1.7-3.8,2-5.8.6-3.5.3-7.2-.6-10.7-.3-1.3-.7-2.5-1.2-3.7-.6-1.2-1.7-2.1-2.2-3.4-.1-.4-.7-2.1-.5-2.4-.4.5-.9.9-1.4,1.4-4.6,4-11.9,6-21.6,6s-3,0-4.5-.1c-.2,0-1.5,0-3.1-.2-.4,1.9-1.3,7,.1,10,1.2,2.6.6,5.2,0,7.8-.3,1.3-.6,2.6-.7,3.7-.1,3.2,1,5.8,3.5,8.1,2.5,2.4,6.3,3.9,11.3,4.5,4.6.6,9.2,0,13.3-1.9,2.5-1.1,4.8-2.6,6.5-4.3h.1Z" fill="#f7dcb8"/>
      <path d="M695.2,471.4c-.1-.3-.3-.6-.4-.9-1.7-3.8-3.6-7.8-6.6-10.8-.9-.9-1.9-1.8-3.1-2.2-.7-.2-1.3,0-1.9-.2-.9-.2-1-1.3-1.3-2-.3-.6-1-1.1-1.6-1.5-2.1-1.4-4.6-2.1-7-2.5-7.9-1.4-18.7,0-25.6,8.1-4.2,4.9-6,9.3-5.4,13.1.3,1.6,1,2.8,1.9,4,2.3,2.9,1,6.6-1,9.3-.8,1.1-1.8,2.1-2.9,2.9-.2.1-2.3,1.5-2.4,1.4,2,3.1,5.8,4.4,8.4,4.9v-1.9c0-1.3.4-2.7.7-4,.6-2.4,1.1-4.7.1-6.8-.9-1.9-1-4-.9-6,0-1.2,0-4.4,1-5.1.3-.2.6-.3,1-.4,1.2-.4,2.1-.5,3.3-.5h0c7.9.5,18.7-.1,24.9-5.4,1-.9,1.9-1.8,2.6-2.9.4-.6,1-2.9,1.8-2.2.7.5.3,1.6,0,2.2-.3,1-.4,2.1-.3,3.2.2,1.7,1.1,2.5,2,3.8.3.4.5,1,.7,1.4.6,1.3.9,2.7,1.3,4.1.8,3.5,1,7.2.4,10.7-.8,5.1-3.2,8.8-7.1,11,1.5,1.2,5.2,3.3,12,1.7,2.5-.6,4.5-2.2,5.8-4.8,2.3-4.5,2.7-13.3-.8-21.5h0l.4-.2Z" fill="#50af8a"/>
      <path d="M671.9,475.4c.5,0,1.1-.2,1.6-.4.2,0,.4-.2.6-.2.9-.3,2.1-.3,3.7,0h.5s.2-.1.2-.2c0-.7-.9-1-1.2-1.1-1.5-.5-3.5-1-5.2-.2-.8.4-1.2.8-1.2,1.2,0,.2,0,.5.2.6.2.2.6.4.9.4h0l-.1-.1Z"/>
      <path d="M661.6,496.5c-3.3-.2-4.6-1-5.2-1.7-.1-.2-.4-.5-.4-.8,0-.2,0-.4.2-.6,0,0,.1-.2.2-.3.2-.5.4-1,.5-1.5,0-.3,0-.5-.2-.8-.2-.2-.4-.4-.7-.4-.6,0-1.1.3-1.2.9,0,0-.2,1.1-.9,1.6-.4.3-.8.3-1.4.2-.6-.1-1.1.3-1.2.8-.1.6.3,1.1.8,1.2h1.9c.2.1.4.3.5.5,0,0,.1.2.2.3.3.3.6.6,1,.9,0,1,.4,2.4.6,2.8.7,1.2,2,2,3.7,2.3.6.1,1.2.2,1.9.2,1.9,0,3.8-.5,5.6-1.4,2.4-1.2,3.8-3.2,5-5.2v-.1h0s.1-.1.2-.2c.6-.4,1.1-.3,1.8-.2.2,0,.4,0,.6.1.3,0,.5,0,.8-.2.2-.2.4-.4.4-.7s0-.5-.2-.8c-.2-.2-.4-.4-.7-.4-1-.2-1.9-.4-2.6-.9-.4-.3-.7-.6-.9-.9v-.1c0-.2-.1-.4-.4-.5-.3-.2-.8,0-1.1.2-.4.4-.4,1,0,1.7,0,.1.2.2.2.3,0,0,.2.2.2.3.1.3,0,.5,0,.7-.4.8-2.2,1.6-3.7,1.9-1.7.4-3.6.6-5.6.5h0l.1.3ZM661.5,498.5h1.3c2,0,3.8-.2,5.5-.7h0c-.5.5-1.1.9-1.6,1.1-3.6,1.8-6,1.1-6.7.8-.2,0-.5-.3-.5-.5,0-.3,0-.5.2-.6.2-.2.5-.2.9-.2h.9v.1Z"/>
      <path d="M670.8,481.7c.2,0,.4-.1.5-.2s.3-.3.5-.4c.4-.4.9-.9,1.3-.9h.2s-.2.4-.3.5c0,.1-.1.2-.2.3-.3.6-.5,1.4-.6,2.2,0,1.2.3,3.4,2,3.9h.7c.7,0,1.4-.2,1.8-.6,1-.8,1.3-2.3,1.3-3.1,0-1-.2-2-.6-2.8,0-.1-.1-.2-.2-.3v-.1c-1-1.5-2.8-2.2-4.4-1.8-1.2.3-2.5,1.2-2.5,2.6,0,.4.2.8.5.8h0v-.1Z"/>
      <path d="M696.9,470.6c-1.7-3.9-3.7-8-6.6-11.4-1.2-1.3-2.2-2.3-3.4-2.9-.6-.3-1.1-.6-1.7-.7h-.5c-.3,0-.5,0-.7-.1-.1-.1-.2-.3-.3-.5,0-.1,0-.3-.2-.4-.5-.9-1.4-1.6-2.1-2.1-2-1.3-4.4-2.2-7.8-2.9-8.4-1.5-20,0-27.4,8.7-4.6,5.4-6.5,10.3-5.8,14.6.3,1.6.9,3.1,1.9,4.3,1.2,1.6,1.8,2.9,1,4.6-.7,1.6-1.6,3.1-2.7,4.2-.7.8-1.5,1.4-2.3,1.8-1,.6-1.5,1.4-1.6,2.3,0,1.2.7,2.5,2.1,3.6,1.2.9,2.5,1.6,4.1,2.2.1,0,.5.1,1.2.3.8.2,2.1.5,2.3.6.6,2.1,1.8,4,3.6,5.8,2.8,2.7,7,4.3,12.3,5,1.1.1,2.3.2,3.4.2,3.8,0,7.4-.7,10.8-2.2,3.1-1.4,5.9-3.3,7.9-5.5h.9c1.6,0,3.3-.2,5-.6,3.1-.7,5.5-2.7,7-5.8,3.2-6.4,2.1-16.5-.7-23h0l.3-.1ZM648.3,493.1c0-1.2.3-2.4.6-3.7.6-2.6,1.3-5.4,0-8-1.4-2.8-.6-7.6-.2-9.6,1.5.2,2.7.1,2.9.1,1.6,0,3.1.1,4.5.1,9.8,0,17.1-2,21.8-6.1.3-.3.7-.6,1-.9,0,.6.4,1.5.5,1.8.3.7.7,1.3,1.2,1.9.4.5.7,1,1,1.5.5,1,.8,2.1,1.2,3.6.9,3.7,1.1,7.4.6,10.6-.4,2.5-1.2,4.6-2.4,6.2-.4.6-.9,1.1-1.5,1.6-1,.9-2.1,1.9-2.2,3.4-.3,2.8,2.9,3.5,4.7,3.9-1.7,1.6-3.8,3-6.1,4-4,1.8-8.6,2.4-13.2,1.8-4.9-.6-8.6-2.1-11.1-4.4s-3.5-4.8-3.4-8h0l.1.2ZM680.8,494.3c.2-.1.3-.3.5-.4.7-.8,1.4-1.6,2-2.5,1.1-1.8,1.9-4,2.3-6.4.5-3.4.4-7-.4-10.8-.4-1.6-.8-3-1.3-4.1h0c-.2-.5-.4-1-.7-1.5-.2-.3-.4-.6-.6-.8-.6-.9-1.2-1.6-1.3-2.8-.1-1.2,0-2.1.2-3.1h0c.2-.8.6-1.8-.2-2.4-.2-.2-.4-.2-.6-.1-.6.1-.9,1-1.3,1.8-.1.3-.2.5-.3.6-.7,1-1.5,2-2.5,2.9-6.2,5.2-16.8,5.8-24.7,5.3h0c-2.4,0-4.5-.3-6.6-1h-.3c-.2,0-.3.2-.3.4,0,.5.3,1.1.9,1.5h.1c.9.7,1.1.9.9,2-.2,1.1-.3,2.1-.4,3-.1,1.8-.1,4.4.9,6.6.9,2,.4,4.2-.2,6.6-.3,1.3-.6,2.7-.7,4.1v1.6c-2.1-.5-4-1.2-5.4-2.2-1-.7-1.5-1.3-1.5-1.9,0-.5.4-1.1,1.3-1.8,1.1-.8,2.1-1.8,2.9-3,.8-1.1,1.8-2.7,2.1-4.6s0-3.5-1.2-4.9c-1.1-1.4-1.7-2.6-1.9-3.9-.6-3.7,1.2-8,5.3-12.9,6.8-8.1,17.6-9.4,25.4-8,3,.5,5.2,1.3,6.9,2.5.6.4,1.2.8,1.5,1.4,0,.2.2.4.2.6.2.6.5,1.3,1.2,1.5h1.8c1.3.5,2.3,1.5,3,2.2,2.8,3,4.8,6.9,6.5,10.7.1.3.3.6.4.9,3.5,8.1,3,16.8.8,21.2-1.3,2.5-3.2,4.1-5.6,4.7-3,.7-5.7.8-8,.2h-.3c-.8-.2-1.6-.4-2-1.1-.4-.9.2-1.5.9-2.1h.3Z"/>
      <path d="M652.4,479.5h.2s-.2.3-.2.4c0,0-.1.2-.2.3-.3.6-.5,1.3-.5,2,0,1.1.3,3.1,1.8,3.6h.7c.6,0,1.3-.2,1.7-.5,1-.7,1.2-2.1,1.2-2.9,0-.9-.1-1.9-.5-2.6,0,0-.1-.2-.2-.3v-.1c-1-1.4-2.6-2-4.1-1.7-1.1.2-2.3,1.1-2.4,2.4,0,.3.1.7.5.7.2,0,.4-.1.4-.2h0c.1-.1.3-.3.4-.4.3-.4.8-.8,1.2-.8v.1Z"/>
      <path d="M659.3,491.9c.5.2,1,.3,1.5.3,1,0,2-.4,2.6-1.2.2-.2.2-.5.2-.7,0-.3-.2-.5-.4-.6-.2-.2-.5-.2-.7-.2-.3,0-.5.2-.6.4-.5.6-1.3.6-1.8.3-.7-.3-1.4-.9-1.3-1.8,0-.6.3-1,.7-1.2.8-.5,2.1-.3,3,.1.5.2,1,0,1.3-.4.2-.5,0-1-.4-1.3-1.3-.6-3.3-.9-4.8-.1-1,.5-1.6,1.5-1.7,2.7-.1,1.3.6,3,2.5,3.7h-.1Z"/>
      <path d="M650.4,475h.5c1.2-.3,2.2-.2,3,0,.1,0,.3.1.5.2.4.2.9.5,1.3.5s.6-.1.8-.4c.2-.2.2-.4.2-.6,0-.4-.4-.8-1-1.2-1.4-.9-3.1-.4-4.4.1-.6.3-.9.6-1,1.1,0,0,0,.2.1.2h0v.1Z"/>
      <path d="M591.3,466.4c0,1.5-.3,2.9-1,4.2-.7,1.2-1.6,2.3-2.9,3.1-1.2.9-2.8,1.5-4.5,2l-1-2c1.4-.4,2.7-.9,3.7-1.5s1.8-1.3,2.3-2.1c.5-.8.8-1.6.8-2.5v-1.2h2.6ZM590.3,468.4h-7.3v-1.9h7.3v1.9ZM596.7,475.3h-2.5v-9.9h2.5v9.9ZM596.7,482.9h-11.8v-6.9h11.8v6.9ZM587.4,481h6.9v-3h-6.9v3ZM607.6,469.1h-7.7v-2h7.7v2ZM604.7,478.3h-2.5v-6h2.5v6ZM609.1,468.6v2.1c0,.6,0,1.3-.1,2.1,0,.8-.2,1.7-.3,2.6l-2.5-.2c.2-1.3.3-2.4.4-3.4v-4.6h2.5v1.4h0ZM613.2,483.2h-2.5v-17.8h2.5v17.8ZM615.6,474.6h-3.2v-2.1h3.2v2.1ZM599,477.5c2.2,0,4.2,0,5.9-.1,1.7,0,3.4-.2,4.9-.4v1.8c-1.5.3-3.2.5-5,.5s-3.7.1-5.6.1l-.2-2v.1ZM622.5,468.5c0,1.2-.2,2.2-.6,3.2-.4,1-.9,1.9-1.7,2.6s-1.7,1.3-2.8,1.7l-1.2-2c.9-.3,1.7-.8,2.4-1.3.6-.6,1.1-1.2,1.4-1.9.3-.7.5-1.5.5-2.3v-1.2h2v1.2h0ZM623,468.5c0,.7.1,1.4.4,2.1.3.7.7,1.2,1.4,1.7.6.5,1.4.9,2.3,1.2l-1.2,1.9c-1.1-.3-2-.8-2.7-1.5s-1.3-1.5-1.7-2.4-.5-1.9-.5-3v-1.2h2v1.2h0ZM626.5,468.6h-9.7v-2h9.7v2ZM630.5,475.9h-2.5v-10.6h2.5v10.6ZM632.9,471.5h-3.1v-2h3.1v2ZM624.7,476.3c1.2,0,2.3.1,3.2.4s1.6.7,2.1,1.2.7,1.1.7,1.8-.2,1.3-.7,1.8-1.2.9-2.1,1.2c-.9.3-2,.4-3.2.4s-2.3-.1-3.2-.4-1.6-.7-2.1-1.2-.7-1.1-.7-1.8.2-1.3.7-1.8,1.2-.9,2.1-1.2c.9-.3,2-.4,3.2-.4ZM624.7,478.2c-.8,0-1.4,0-2,.2-.5.1-.9.3-1.2.5s-.4.5-.4.8.1.6.4.8c.3.2.7.4,1.2.5s1.2.2,2,.2,1.4,0,2-.2c.5-.1.9-.3,1.2-.5s.4-.5.4-.8-.1-.6-.4-.8c-.3-.2-.7-.4-1.2-.5s-1.2-.2-2-.2Z" fill="#50af8a"/>
    </g>
  </g>
</svg>